<svg xmlns="http://www.w3.org/2000/svg" viewBox="0 0 24 24"><defs><style>.cls-1,.cls-2,.cls-3{fill:none;stroke:#000;stroke-linecap:round;stroke-width:1.5px;}.cls-1{stroke-linejoin:round;}.cls-2,.cls-3{stroke-linejoin:bevel;}.cls-2{fill-rule:evenodd;}</style></defs><g id="ic-folder-settings"><path class="cls-1" d="M8,20.3H4a2,2,0,0,1-2-2V7.3H20a2,2,0,0,1,2,2"/><path class="cls-1" d="M2,11.1v-6a1,1,0,0,1,.91-1h8.86a.89.89,0,0,1,.64.29L14,7.3"/><path class="cls-2" d="M15.9,11.86l0-.12a1.14,1.14,0,0,1,2.15.09l0,.13a1.14,1.14,0,0,0,1.54.71l.12-.05a1.15,1.15,0,0,1,1.46,1.59l-.06.12a1.13,1.13,0,0,0,.58,1.59l.12.05a1.15,1.15,0,0,1-.09,2.16l-.13,0A1.14,1.14,0,0,0,21,19.7l.05.13a1.14,1.14,0,0,1-1.58,1.45l-.12-.06a1.15,1.15,0,0,0-1.6.58l-.05.12a1.14,1.14,0,0,1-2.15-.09l0-.13A1.15,1.15,0,0,0,13.93,21l-.12.06a1.14,1.14,0,0,1-1.45-1.59l.06-.12a1.13,1.13,0,0,0-.58-1.59l-.13,0a1.15,1.15,0,0,1,.1-2.16l.13,0A1.13,1.13,0,0,0,12.65,14l-.05-.13a1.14,1.14,0,0,1,1.59-1.45l.12.06A1.13,1.13,0,0,0,15.9,11.86Z"/><circle class="cls-3" cx="16.81" cy="16.83" r="1.93"/></g></svg>