<svg xmlns="http://www.w3.org/2000/svg" viewBox="0 0 24 24"><defs><style>.cls-1,.cls-2{fill:none;stroke:#000;stroke-linecap:round;stroke-linejoin:round;stroke-width:1.5px;}.cls-2{fill-rule:evenodd;}</style></defs><g id="ic-places-castle"><path class="cls-1" d="M2,7H22a0,0,0,0,1,0,0V20.8a.2.2,0,0,1-.2.2H2.2a.2.2,0,0,1-.2-.2V7A0,0,0,0,1,2,7Z"/><path class="cls-2" d="M7.94,21V15a2,2,0,0,1,2-2H14a2,2,0,0,1,2,2v6"/><path class="cls-2" d="M2,7V3.2A.2.2,0,0,1,2.2,3H5.8a.2.2,0,0,1,.2.2V7"/><path class="cls-2" d="M10,7V3.2a.2.2,0,0,1,.2-.2h3.6a.2.2,0,0,1,.2.2V7"/><path class="cls-2" d="M18,7V3.2a.2.2,0,0,1,.2-.2h3.6a.2.2,0,0,1,.2.2V7"/></g></svg>