<svg xmlns="http://www.w3.org/2000/svg" viewBox="0 0 24 24"><defs><style>.cls-1,.cls-2{fill:none;stroke:#000;stroke-linecap:round;stroke-linejoin:round;stroke-width:1.5px;}.cls-2{fill-rule:evenodd;}</style></defs><g id="ic-shopping-house"><rect class="cls-1" x="3" y="2" width="18" height="20" rx="2"/><path class="cls-2" d="M8,22V16a4,4,0,0,1,4-4h0a4,4,0,0,1,4,4v6"/><path class="cls-2" d="M3,5H3A3,3,0,0,0,6,8H6A3,3,0,0,0,9,5V2"/><path class="cls-2" d="M9,5H9a3,3,0,0,0,3,3h0a3,3,0,0,0,3-3V2"/><path class="cls-2" d="M21,5h0a3,3,0,0,1-3,3h0a3,3,0,0,1-3-3V2"/></g></svg>